<svg width="16" height="15" viewBox="0 0 16 15" fill="none" xmlns="http://www.w3.org/2000/svg">
<path fill-rule="evenodd" clip-rule="evenodd" d="M4.4959 14.1256C4.64224 14.1597 4.83025 14.2246 4.98466 14.2738C6.19013 14.6579 7.63029 14.9075 8.92561 14.9075H12.8342C13.5703 14.9075 14.7428 13.9258 14.0212 12.5619C14.3408 12.4875 14.6862 12.0227 14.8068 11.6682C15.0501 10.9529 14.6408 10.4426 14.6292 10.3033C14.8053 10.2563 15.0337 9.96692 15.1274 9.81707C15.5022 9.21826 15.3958 8.41815 14.9127 7.93493C14.8263 7.84858 14.6872 7.77627 14.6292 7.69717C14.677 7.51809 15.0044 7.13262 14.8333 6.45065C14.6665 5.78609 14.0301 5.29376 13.2974 5.29376H10.1416C10.1476 5.02459 10.5469 3.46967 10.5469 2.39805C10.5469 1.65366 10.5893 0.625131 9.88188 0.254396C9.38108 -0.00805026 8.73968 0.0177419 8.32409 0.435475L8.07643 0.766917C8.00298 0.900566 7.95257 1.01458 7.89553 1.16512C7.77496 1.48334 7.08151 3.37041 6.90824 3.68146C6.75736 3.95232 6.37425 4.47487 6.16815 4.67866L5.95242 4.89725C5.74688 5.12464 5.49467 5.3373 5.2706 5.54736L4.95003 5.80588C4.36684 6.27813 4.4959 5.98185 4.4959 7.08908V14.1256ZM0.529419 7.03117V13.5175C0.529419 13.7308 0.766303 13.9229 0.992652 13.9229H3.62732V6.59682H0.905799C0.699996 6.59682 0.529419 6.81609 0.529419 7.03117Z" fill="black"/>
</svg>
