<svg width="16" height="16" viewBox="0 0 16 16" fill="none" xmlns="http://www.w3.org/2000/svg">
<path fill-rule="evenodd" clip-rule="evenodd" d="M10.4021 1.275V3.27271C9.81779 3.27271 9.43667 3.30793 8.90771 3.42857C8.45409 3.53203 8.20838 3.6284 7.80473 3.80215C7.34739 3.99904 6.59849 4.45823 6.23968 4.81384C5.83809 5.21185 5.72153 5.28257 5.36421 5.79132C5.10899 6.1547 5.01484 6.31829 4.81435 6.718C4.18531 7.97206 4.23531 8.91303 4.23531 10.2791C4.23531 10.539 4.6104 10.813 4.93103 10.6274C5.26492 10.4342 5.35447 9.57566 6.62977 8.62031C7.30486 8.11462 8.39556 7.61553 9.56251 7.61553H10.4021V9.61324C10.4021 9.87612 10.6025 10.0765 10.8943 10.0765C11.2065 10.0765 11.3764 9.76604 11.5381 9.59117C11.7183 9.39642 11.9128 9.2156 12.1033 9.0272L12.928 8.17263C12.9864 8.10627 12.9927 8.08081 13.0579 8.01305L14.4469 6.59367C14.7451 6.23692 15.3529 5.75342 15.3529 5.50202C15.3529 5.13675 15.1643 5.03834 14.868 4.74203L13.2032 3.01938C13.1543 2.9705 13.1187 2.93934 13.0726 2.88945L11.5398 1.29541C11.3038 1.01305 11.1881 0.811768 10.8075 0.811768C10.596 0.811768 10.4021 1.05447 10.4021 1.275ZM0.529419 5.00984V13.8982C0.529419 14.7725 1.39226 15.6353 2.26655 15.6353H13.6158C14.4901 15.6353 15.3529 14.7725 15.3529 13.8982V8.80257C15.3529 8.18696 14.4185 7.97302 14.1616 8.59556C14.058 8.84653 14.108 10.9243 14.108 11.2925C14.108 11.9005 14.108 12.5085 14.108 13.1165C14.108 13.3942 14.1575 13.7807 14.0689 14.0038C13.9904 14.2013 13.7901 14.3904 13.529 14.3904H2.3534C2.05372 14.3904 1.77436 14.111 1.77436 13.8113V5.15459C1.77436 3.88399 4.20397 4.97248 4.71685 4.30434C5.08185 3.82885 4.71852 3.27271 4.20634 3.27271H2.3534C1.37871 3.27271 0.529419 4.14535 0.529419 5.00984Z" fill="black"/>
</svg>
