<svg width="16" height="15" viewBox="0 0 16 15" fill="none" xmlns="http://www.w3.org/2000/svg">
<path fill-rule="evenodd" clip-rule="evenodd" d="M4.23531 3.00277V9.02916C4.23531 9.58696 4.46134 10.2056 4.75454 10.6226C4.85209 10.7613 4.96063 10.8899 5.08269 11.0218C5.52679 11.5015 6.35517 11.9038 7.04069 11.9038H12.5822C13.3706 11.9038 14.0607 11.4451 14.5655 10.9432C15.036 10.4755 15.3529 9.68519 15.3529 8.75208V4.31888H13.4481C12.1763 4.31888 11.0929 3.23549 11.0929 1.96374V0.0588379H7.38703C6.67112 0.0588379 6.12819 0.208476 5.59265 0.550332C4.77849 1.07006 4.23531 2.00334 4.23531 3.00277ZM15.0412 3.2452C14.9794 3.01366 13.2406 1.35794 12.9372 1.05458C12.772 0.889346 12.3726 0.425544 12.1666 0.370554C12.1666 0.844244 12.165 1.31811 12.1654 1.79175C12.1661 2.64839 12.7295 3.23714 13.5852 3.24661C14.0686 3.25195 14.5572 3.2452 15.0412 3.2452ZM0.529419 6.18914V11.7306C0.529419 12.6962 0.812513 13.3525 1.41146 14.0003C1.50324 14.0996 1.71018 14.2707 1.82614 14.3476C1.99034 14.4566 2.15792 14.5428 2.34151 14.6288C2.68934 14.7919 3.18236 14.8824 3.68116 14.8824H8.42606C9.42211 14.8824 10.0459 14.6309 10.6671 14.1102C10.8021 13.9971 10.8509 13.9082 10.9634 13.7831C11.118 13.611 11.3461 13.2632 11.4046 13.0121C10.4118 13.0121 9.41892 13.0121 8.42606 13.0121C7.286 13.0121 6.55132 13.0525 5.70937 12.7156C4.70294 12.3129 3.85542 11.4926 3.45814 10.499C3.33393 10.1884 3.17142 9.67126 3.16046 9.27277C3.13362 8.29643 3.16163 7.27458 3.16163 6.29303C3.16163 5.28751 3.15908 4.28173 3.16423 3.27634C3.16511 3.10373 3.19633 3.06099 3.07673 3.05546C2.90823 3.04766 2.35579 3.25417 2.2028 3.32541C1.19295 3.79563 0.529419 4.86924 0.529419 6.18914Z" fill="black"/>
</svg>
