<svg width="20" height="20" viewBox="0 0 20 20" fill="none" xmlns="http://www.w3.org/2000/svg">
<path fill-rule="evenodd" clip-rule="evenodd" d="M-0.000244141 9.84369C-0.000244141 10.5039 0.0617403 10.8226 0.55601 11.3187C0.83357 11.5973 1.24119 11.8479 1.79707 11.8355C2.29091 11.8244 2.14824 11.7923 2.14824 13.2421C2.14824 14.3071 2.07042 17.9091 2.21745 18.4463C2.44672 19.284 3.29613 20 4.17945 20H7.49978C8.24662 20 8.08575 19.0902 8.08575 18.6718L8.08481 14.8427C8.08136 14.2057 8.47037 13.7499 8.94512 13.7499H11.0545C11.326 13.7499 11.5337 13.9226 11.6712 14.0707C11.8343 14.2464 11.9157 14.4711 11.9153 14.8032C11.9146 15.3637 11.8655 19.343 11.936 19.5872C12.0025 19.8178 12.2177 20 12.4998 20H15.8202C16.3251 20 16.8034 19.7493 17.0803 19.5023C18.0039 18.6788 17.8514 18.0362 17.8514 16.7577V12.3827C17.8506 11.8871 17.7252 11.8248 18.2025 11.8355C19.2228 11.8582 19.9427 11.0008 19.9999 10.0895V9.8564C19.981 9.55951 19.8891 9.26433 19.7115 8.99915C19.4569 8.61898 12.6599 1.89829 11.7088 0.947172C11.0095 0.247863 10.8628 -0.00012207 9.84357 -0.00012207C9.13325 -0.00012207 8.6806 0.557407 8.31035 0.927613L0.927491 8.31047C0.557285 8.68073 -0.000244141 9.13337 -0.000244141 9.84369Z" fill="white"/>
</svg>
