<svg width="20" height="18" viewBox="0 0 20 18" fill="none" xmlns="http://www.w3.org/2000/svg">
<path fill-rule="evenodd" clip-rule="evenodd" d="M6.64065 2.07894V5.63364H1.01561C0.436915 5.63364 0 5.9634 0 6.45394V11.532C0 12.0181 0.437434 12.3523 1.01561 12.3523H6.64065V15.907C6.64065 16.7932 7.45684 17.3056 8.1544 16.6005L15.0879 9.66683C15.8789 8.88116 15.1757 8.40707 14.6191 7.85043L8.17387 1.405C7.42131 0.647482 6.64065 1.22963 6.64065 2.07894ZM11.6406 1.33668L11.6797 2.15708C11.8105 2.22629 11.8799 2.28842 12.0573 2.32626C12.176 2.35153 12.3991 2.35281 12.5781 2.35239L15.8984 2.35229C16.3419 2.35229 16.5478 2.32574 16.9004 2.44409C17.2243 2.55294 17.3579 2.64898 17.6014 2.83687C17.7679 2.96538 17.99 3.25962 18.0867 3.44533C18.2087 3.67957 18.3203 3.98888 18.3203 4.34453V13.6414C18.3203 14.1972 18.1073 14.5509 17.8296 14.9085C17.7082 15.0649 17.6866 15.0847 17.5339 15.1988C16.9136 15.6623 16.6526 15.6336 15.625 15.6336L12.1131 15.6374C11.5629 15.6926 11.6406 16.1957 11.6406 16.7273C11.6406 17.1711 11.8219 17.3524 12.2657 17.3524C13.356 17.3524 15.7663 17.4047 16.7524 17.3079C17.365 17.2477 17.9902 16.9654 18.4714 16.605C18.9391 16.2548 19.3142 15.8302 19.5966 15.3084C19.8065 14.9205 20 14.3398 20 13.7587V4.18825C20 3.4485 19.6499 2.63231 19.2246 2.11215C18.9176 1.73665 18.6251 1.46953 18.2195 1.20322C17.4985 0.729734 16.7134 0.633545 15.8594 0.633545H12.2266C11.7504 0.633545 11.6406 0.865372 11.6406 1.33668Z" fill="white"/>
</svg>
