<svg width="20" height="20" viewBox="0 0 20 20" fill="none" xmlns="http://www.w3.org/2000/svg">
<path fill-rule="evenodd" clip-rule="evenodd" d="M0 17.9131C0.00127559 18.3772 0.305859 18.8014 0.555876 19.034C1.0544 19.498 1.90862 19.5706 2.46936 19.2468C3.07971 18.8943 3.35935 18.3588 3.35935 17.5587V3.45705C3.35935 3.04589 3.13848 2.75392 2.73435 2.75392H0.664065C0.304678 2.75392 0.00127559 2.95612 0 3.25986V17.9131ZM3.98434 19.4727H16.7969C17.2806 19.4727 17.7159 19.4365 18.0816 19.3121C18.7572 19.0823 19.3381 18.6434 19.6621 18.0019C19.8212 17.687 19.9988 17.3128 20 16.8602V1.03333C19.9987 0.698368 19.6482 0.527344 19.2969 0.527344H5.19531C4.23951 0.527344 4.41408 1.25812 4.41408 2.28516V17.5587C4.41408 18.4422 4.35077 18.6845 3.93837 19.3182C3.89779 19.3805 3.817 19.4727 3.98434 19.4727ZM7.80621 3.34504H16.7016C17.2248 3.34504 17.6528 3.77302 17.6528 4.29616V4.29621C17.6528 4.81934 17.2248 5.24733 16.7016 5.24733H7.80621C7.28308 5.24733 6.85509 4.81934 6.85509 4.29621V4.29616C6.85509 3.77302 7.28308 3.34504 7.80621 3.34504ZM7.80621 6.97136H16.7016C17.2248 6.97136 17.6528 7.39935 17.6528 7.92249V7.92253C17.6528 8.44567 17.2248 8.87365 16.7016 8.87365H7.80621C7.28308 8.87365 6.85509 8.44567 6.85509 7.92253V7.92249C6.85509 7.39935 7.28308 6.97136 7.80621 6.97136ZM7.80621 10.5977H16.7016C17.2248 10.5977 17.6528 11.0257 17.6528 11.5488V11.5489C17.6528 12.072 17.2248 12.5 16.7016 12.5H7.80621C7.28308 12.5 6.85509 12.072 6.85509 11.5489V11.5488C6.85509 11.0257 7.28308 10.5977 7.80621 10.5977ZM7.80621 14.224H16.7016C17.2248 14.224 17.6528 14.652 17.6528 15.1751V15.1752C17.6528 15.6983 17.2248 16.1263 16.7016 16.1263H7.80621C7.28308 16.1263 6.85509 15.6983 6.85509 15.1752V15.1751C6.85509 14.652 7.28308 14.224 7.80621 14.224Z" fill="white"/>
</svg>
